<svg width="547" height="420" viewBox="0 0 547 420" fill="none" xmlns="http://www.w3.org/2000/svg">
<g clip-path="url(#clip0)">
<path d="M297.766 4.63076C271.513 11.4549 248.356 29.6738 225.34 53.575C232.914 60.4833 237.49 70.0808 238.09 80.3186C238.69 90.5563 235.267 100.623 228.55 108.37C221.834 116.117 212.358 120.93 202.144 121.781C191.93 122.633 181.789 119.455 173.884 112.927C146.848 145.245 117.327 179.409 81.296 207.645C-10.4437 279.541 178.213 410.66 297.766 410.66C417.319 410.66 514.236 319.767 514.236 207.645C514.236 95.5235 412.976 -25.3165 297.766 4.63076Z" fill="#FFEAEB"/>
<path d="M197.854 109.083C213.314 109.083 225.848 96.5415 225.848 81.0713C225.848 65.6011 213.314 53.0601 197.854 53.0601C182.393 53.0601 169.859 65.6011 169.859 81.0713C169.859 96.5415 182.393 109.083 197.854 109.083Z" fill="#FF6584"/>
<path d="M465.614 376.68C506.724 376.68 540.049 372.352 540.049 367.014C540.049 361.676 506.724 357.349 465.614 357.349C424.505 357.349 391.179 361.676 391.179 367.014C391.179 372.352 424.505 376.68 465.614 376.68Z" fill="#3F3D56"/>
<path d="M202.242 420C243.352 420 276.677 415.673 276.677 410.335C276.677 404.997 243.352 400.669 202.242 400.669C161.133 400.669 127.807 404.997 127.807 410.335C127.807 415.673 161.133 420 202.242 420Z" fill="#3F3D56"/>
<path d="M469.72 333.361C469.72 333.361 473.72 347.146 476.386 350.704C479.053 354.261 481.275 360.042 479.941 360.932C478.608 361.821 475.942 372.493 479.497 372.938C483.052 373.383 491.052 361.376 491.496 357.374C491.941 353.372 493.718 339.142 493.718 339.142C493.718 339.142 496.829 326.691 491.941 325.802C487.052 324.912 479.497 324.468 479.497 324.468L469.72 333.361Z" fill="#2F2E41"/>
<path d="M451.055 348.036C451.055 348.036 445.277 363.155 443.944 364.044C442.611 364.934 437.722 372.938 447.499 372.938C457.276 372.938 462.609 370.27 462.609 370.27L465.72 366.712C465.72 366.712 465.72 357.374 464.831 356.04C463.943 354.706 464.831 348.036 464.831 348.036H451.055Z" fill="#2F2E41"/>
<path d="M411.502 209.74C411.502 209.74 404.391 257.765 410.613 273.329C416.835 288.893 423.057 293.34 423.057 293.34L470.164 337.363C470.164 337.363 484.83 329.804 483.497 324.912C483.497 324.912 480.386 323.134 479.941 321.8C479.497 320.466 473.72 320.021 473.72 320.021C473.72 320.021 471.053 316.908 471.053 315.129C471.053 313.351 447.944 281.778 440.389 279.555C440.389 279.555 436.389 274.663 436.833 273.774C437.278 272.885 435.5 269.772 435.5 269.772L439.944 252.429L467.942 247.982C467.942 247.982 479.497 207.072 469.72 203.959C459.943 200.846 411.502 209.74 411.502 209.74Z" fill="#2F2E41"/>
<path d="M467.053 240.868L467.942 247.982C467.942 247.982 467.942 266.659 467.053 268.438C466.165 270.217 465.72 272.885 467.053 274.663C468.387 276.442 470.609 280.889 469.72 282.668C468.831 284.446 471.498 334.695 467.942 338.253C464.387 341.81 465.72 346.257 466.165 346.702C466.609 347.146 465.72 348.925 465.72 348.925C465.72 348.925 447.499 352.038 448.833 348.925C450.166 345.812 450.166 344.034 451.055 343.144C451.943 342.255 451.055 340.921 451.055 340.921C451.055 340.921 452.388 326.691 451.055 325.802C449.721 324.912 445.722 282.223 445.722 281.778C445.722 281.334 444.388 280.444 444.388 278.665C444.388 276.887 444.388 271.106 442.166 270.217C439.944 269.327 440.389 247.538 440.389 247.538L467.053 240.868Z" fill="#2F2E41"/>
<path d="M435.5 82.1163C435.5 82.1163 437.278 95.4568 442.611 98.1249C447.944 100.793 451.499 102.127 451.499 102.127L447.055 117.691L445.277 131.031H424.834L413.724 122.138L417.279 107.463L419.057 104.795C419.057 104.795 421.279 95.0121 419.501 91.8993C417.724 88.7866 435.5 82.1163 435.5 82.1163Z" fill="#FFB9B9"/>
<path d="M426.612 114.578L429.723 120.359C429.723 120.359 431.945 112.355 435.056 111.021C438.167 109.687 445.722 107.463 445.722 105.684C445.722 103.906 445.277 99.4589 447.055 99.4589C448.833 99.4589 466.165 104.795 468.831 106.574C471.498 108.352 471.942 110.131 471.942 110.131L467.054 161.27C467.054 161.27 474.164 185.282 471.942 194.621C469.72 203.959 467.942 205.293 462.609 206.627C457.276 207.961 460.387 203.514 444.833 207.961C429.278 212.408 419.501 211.074 415.946 211.074C412.391 211.074 410.169 212.853 409.28 213.297C408.391 213.742 408.835 211.074 411.946 207.072C415.057 203.07 413.724 196.399 413.724 196.399C413.724 196.399 410.169 184.838 412.391 180.391C414.613 175.944 417.724 170.163 415.057 168.384C412.391 166.606 408.835 153.265 408.835 153.265L399.058 118.58L419.057 104.795C419.057 104.795 418.168 111.021 421.279 112.355C424.39 113.689 426.612 114.578 426.612 114.578Z" fill="#DA5566"/>
<path d="M401.725 118.135H399.058C399.058 118.135 394.614 125.695 394.614 131.031C394.614 136.367 396.836 166.606 396.836 166.606L409.724 179.946L412.835 169.719L413.724 147.04L401.725 118.135Z" fill="#DA5566"/>
<path d="M408.835 165.272C408.835 165.272 394.17 161.27 394.614 167.495C395.059 173.721 397.281 181.28 404.391 183.059C411.502 184.838 413.724 175.055 413.724 175.055C413.724 175.055 414.613 166.161 408.835 165.272Z" fill="#DA5566"/>
<path d="M463.943 185.727C463.943 185.727 463.054 206.182 457.721 208.406L470.609 211.519C470.609 211.519 476.83 190.174 475.942 189.284C475.053 188.395 463.943 185.727 463.943 185.727Z" fill="#FFB9B9"/>
<path d="M387.717 144.09L395.349 140.754C395.49 140.692 395.642 140.659 395.796 140.656C395.95 140.653 396.103 140.68 396.246 140.737C396.39 140.793 396.521 140.877 396.632 140.984C396.742 141.09 396.831 141.218 396.893 141.359L405.378 160.794C405.53 161.142 405.538 161.537 405.399 161.891C405.26 162.245 404.987 162.529 404.639 162.681L397.482 165.81C397.134 165.962 396.74 165.969 396.386 165.831C396.032 165.692 395.748 165.418 395.596 165.07L387.111 145.635C386.987 145.35 386.981 145.027 387.094 144.737C387.208 144.447 387.431 144.214 387.717 144.09Z" fill="#2F2E41"/>
<path opacity="0.1" d="M387.717 144.09L395.349 140.754C395.49 140.692 395.642 140.659 395.796 140.656C395.95 140.653 396.103 140.68 396.246 140.737C396.39 140.793 396.521 140.877 396.632 140.984C396.742 141.09 396.831 141.218 396.893 141.359L405.378 160.794C405.53 161.142 405.538 161.537 405.399 161.891C405.26 162.245 404.987 162.529 404.639 162.681L397.482 165.81C397.134 165.962 396.74 165.969 396.386 165.831C396.032 165.692 395.748 165.418 395.596 165.07L387.111 145.635C386.987 145.35 386.981 145.027 387.094 144.737C387.208 144.447 387.431 144.214 387.717 144.09Z" fill="black"/>
<path d="M388.15 145.082L394.804 142.173C395.089 142.049 395.412 142.043 395.701 142.156C395.991 142.27 396.223 142.494 396.348 142.779L404.4 161.222C404.552 161.57 404.559 161.965 404.421 162.319C404.282 162.673 404.009 162.957 403.66 163.109L397.482 165.81C397.134 165.962 396.74 165.969 396.386 165.831C396.032 165.692 395.748 165.418 395.596 165.07L387.544 146.627C387.42 146.342 387.414 146.019 387.527 145.729C387.641 145.439 387.865 145.207 388.15 145.082Z" fill="#2F2E41"/>
<path d="M394.269 152.949C395.349 152.477 395.838 151.205 395.359 150.11C394.881 149.014 393.617 148.509 392.537 148.981C391.456 149.453 390.968 150.724 391.446 151.82C391.925 152.916 393.189 153.421 394.269 152.949Z" fill="#F2F2F2"/>
<path opacity="0.1" d="M467.276 116.134L470.164 111.91C470.164 111.91 480.83 128.363 479.941 139.48C479.053 150.597 478.164 151.042 478.164 152.821C478.164 154.599 475.942 154.599 478.164 156.823C480.386 159.046 483.497 162.159 481.719 163.938C479.941 165.716 478.608 165.716 479.053 167.94C479.337 169.555 479.486 171.191 479.497 172.831C479.497 172.831 475.72 180.169 474.386 180.169C473.053 180.169 460.387 191.953 460.387 190.619C460.387 189.284 461.72 179.946 461.72 178.612C461.72 177.278 462.165 172.831 463.054 171.497C463.943 170.163 463.943 170.608 463.054 169.274C462.165 167.94 462.165 169.274 462.165 167.94C462.165 166.606 462.609 164.827 461.276 164.382C459.943 163.938 458.61 164.382 459.498 162.159C460.387 159.935 459.498 158.157 459.054 158.157C458.61 158.157 456.388 157.712 457.721 156.378C459.054 155.044 455.054 129.252 455.054 129.252C455.054 129.252 455.721 122.805 467.276 116.134Z" fill="black"/>
<path d="M464.831 106.574L472.386 110.131C472.386 110.131 483.052 126.584 482.163 137.701C481.275 148.818 480.386 149.263 480.386 151.042C480.386 152.821 478.164 152.821 480.386 155.044C482.608 157.267 485.719 160.38 483.941 162.159C482.163 163.938 480.83 163.938 481.275 166.161C481.559 167.776 481.708 169.413 481.719 171.053C481.719 171.053 477.719 192.397 476.386 192.397C475.053 192.397 462.609 190.174 462.609 188.84C462.609 187.506 463.943 178.167 463.943 176.833C463.943 175.499 464.387 171.053 465.276 169.718C466.165 168.384 466.165 168.829 465.276 167.495C464.387 166.161 464.387 167.495 464.387 166.161C464.387 164.827 464.831 163.048 463.498 162.604C462.165 162.159 460.832 162.604 461.721 160.38C462.609 158.157 461.721 156.378 461.276 156.378C460.832 156.378 458.61 155.933 459.943 154.599C461.276 153.265 457.276 127.474 457.276 127.474C457.276 127.474 453.277 113.244 464.831 106.574Z" fill="#DA5566"/>
<path d="M397.396 168.448C396.982 168.557 396.544 168.521 396.153 168.345C395.763 168.169 395.445 167.863 395.254 167.48C393.212 163.394 387.678 151.411 392.837 151.042C397.595 150.702 401.834 159.987 403.564 164.372C403.675 164.651 403.724 164.95 403.711 165.249C403.697 165.548 403.62 165.841 403.485 166.108C403.349 166.376 403.159 166.611 402.926 166.799C402.693 166.988 402.423 167.124 402.133 167.2L397.396 168.448Z" fill="#FFB9B9"/>
<path d="M423.057 94.5673C432.138 94.5673 439.5 87.201 439.5 78.1141C439.5 69.0272 432.138 61.6609 423.057 61.6609C413.975 61.6609 406.613 69.0272 406.613 78.1141C406.613 87.201 413.975 94.5673 423.057 94.5673Z" fill="#FFB9B9"/>
<path d="M417.014 68.6384C414.963 69.3468 412.845 69.847 410.693 70.1315C409.074 70.3844 407.179 70.5138 406.04 69.3337C404.923 68.1755 405.104 66.2437 405.866 64.8262C406.628 63.4087 407.848 62.2974 408.764 60.9741C410.204 58.8928 411.054 56.1336 413.356 55.0852C414.311 54.7197 415.323 54.5304 416.345 54.5266C422.32 54.1454 428.539 53.802 434.073 56.0898C436.152 56.8824 437.994 58.1938 439.424 59.8994C440.36 61.1552 441.083 62.5574 441.562 64.0491C443.041 68.4386 443.37 73.1342 442.517 77.6871C441.665 82.24 439.66 86.498 436.693 90.0541C434.676 88.2361 435.553 84.0353 433.002 83.1089C432.165 82.805 431.218 83.0165 430.361 82.7759C427.666 82.0198 427.801 77.8526 425.558 76.1782C425.068 75.9144 424.634 75.5576 424.28 75.1278C424.083 74.7155 423.998 74.2587 424.032 73.803C424.016 72.2418 424.748 68.2764 423.26 67.2063C421.745 66.1171 418.47 68.1124 417.014 68.6384Z" fill="#2F2E41"/>
<path d="M257.607 30.4272H393.159V101.596H383.366V127.898L357.08 101.596H257.607V30.4272Z" fill="#DD2E44"/>
<path d="M325.383 81.2453L322.991 79.0863C314.498 71.2834 308.89 66.2189 308.89 59.9101C308.869 58.7097 309.089 57.5174 309.537 56.4036C309.985 55.2898 310.651 54.2772 311.497 53.4257C312.343 52.5742 313.351 51.9012 314.461 51.4465C315.571 50.9917 316.762 50.7645 317.961 50.7783C319.377 50.7858 320.774 51.1016 322.056 51.7038C323.338 52.3059 324.473 53.1799 325.383 54.2651C326.293 53.1799 327.429 52.3058 328.71 51.7037C329.992 51.1016 331.389 50.7858 332.805 50.7783C334.005 50.7645 335.195 50.9917 336.305 51.4465C337.416 51.9012 338.424 52.5742 339.27 53.4257C340.115 54.2772 340.782 55.2898 341.23 56.4036C341.677 57.5174 341.897 58.7097 341.876 59.9101C341.876 66.219 336.269 71.2834 327.775 79.0863L325.383 81.2453Z" fill="white"/>
<path d="M0 205.009L130.394 167.953L149.827 236.414L140.407 239.091L147.588 264.392L115.121 246.277L19.4323 273.47L0 205.009Z" fill="#DD2E44"/>
<path d="M79.0728 235.365L76.1825 233.942C65.8814 228.758 59.1044 225.419 57.3819 219.351C57.0339 218.202 56.9198 216.995 57.0464 215.801C57.173 214.607 57.5376 213.451 58.1188 212.4C58.6999 211.35 59.4857 210.427 60.4297 209.686C61.3737 208.945 62.4567 208.401 63.6145 208.086C64.9785 207.707 66.4089 207.628 67.8061 207.857C69.2034 208.086 70.5342 208.616 71.706 209.412C72.2852 208.119 73.1387 206.968 74.2072 206.038C75.2756 205.109 76.5335 204.423 77.8935 204.028C79.0438 203.687 80.2508 203.58 81.4431 203.714C82.6354 203.848 83.7888 204.22 84.8349 204.808C85.881 205.396 86.7987 206.188 87.5335 207.137C88.2683 208.086 88.8053 209.173 89.1129 210.333C90.8355 216.402 86.8241 222.807 80.7842 232.635L79.0728 235.365Z" fill="white"/>
<path d="M149.692 163.541C149.692 163.541 145.285 176.771 147.733 179.711C150.182 182.651 133.042 170.891 133.042 170.891L142.347 160.111L149.692 163.541Z" fill="#A0616A"/>
<path d="M139.641 163.519C151.785 163.519 161.629 153.669 161.629 141.518C161.629 129.368 151.785 119.518 139.641 119.518C127.498 119.518 117.654 129.368 117.654 141.518C117.654 153.669 127.498 163.519 139.641 163.519Z" fill="#2F2E41"/>
<path d="M225.109 312.505L213.846 321.326L207.479 311.036L218.743 303.195L225.109 312.505Z" fill="#A0616A"/>
<path d="M209.193 378.903L212.132 393.113L220.457 404.383C220.457 404.383 242.984 411.244 227.803 414.674C212.621 418.104 209.193 412.224 209.193 412.224L198.419 402.913V415.654H191.563L190.094 397.523C190.094 397.523 189.115 392.133 193.522 386.253L194.502 377.433L209.193 378.903Z" fill="#2F2E41"/>
<path d="M152.386 202.987L156.304 225.528C156.304 225.528 197.93 221.118 200.868 229.448C203.806 237.778 204.786 240.228 204.786 240.228L196.46 243.168L192.543 235.818C191.349 235.395 190.082 235.221 188.819 235.305C187.556 235.389 186.324 235.731 185.197 236.308C181.279 238.268 146.999 243.168 144.55 236.798C142.102 230.428 135.246 206.907 135.246 206.907L145.53 198.577L152.386 202.987Z" fill="#A0616A"/>
<path opacity="0.1" d="M152.386 202.987L156.304 225.528C156.304 225.528 197.93 221.118 200.868 229.448C203.806 237.778 204.786 240.228 204.786 240.228L196.46 243.168L192.543 235.818C191.349 235.395 190.082 235.221 188.819 235.305C187.556 235.389 186.324 235.731 185.197 236.308C181.279 238.268 146.999 243.168 144.55 236.798C142.102 230.428 135.246 206.907 135.246 206.907L145.53 198.577L152.386 202.987Z" fill="black"/>
<path d="M175.403 268.159L178.831 279.919L187.646 325.001C187.646 325.001 188.625 358.322 190.094 362.242C191.563 366.162 191.563 366.652 190.094 368.122C188.625 369.592 185.687 374.492 190.094 377.432C194.502 380.373 210.173 383.803 210.662 380.373C211.152 376.942 211.152 371.552 210.662 369.102C210.173 366.652 212.132 328.431 212.132 328.431L206.255 270.119L186.176 260.809L175.403 268.159Z" fill="#2F2E41"/>
<path opacity="0.1" d="M175.403 268.159L178.831 279.919L187.646 325.001C187.646 325.001 188.625 358.322 190.094 362.242C191.563 366.162 191.563 366.652 190.094 368.122C188.625 369.592 185.687 374.492 190.094 377.432C194.502 380.373 210.173 383.803 210.662 380.373C211.152 376.942 211.152 371.552 210.662 369.102C210.173 366.652 212.132 328.431 212.132 328.431L206.255 270.119L186.176 260.809L175.403 268.159Z" fill="black"/>
<path d="M196.461 222.098L207.234 242.678C207.234 242.678 268.939 270.119 263.552 281.39C258.165 292.66 228.292 313.73 228.292 313.73C228.292 313.73 226.823 322.061 222.416 319.611C218.008 317.161 207.234 304.42 208.214 302.95C209.193 301.48 212.621 298.05 214.09 298.54C215.56 299.03 232.7 285.8 232.7 285.8L203.317 278.449C203.317 278.449 168.057 277.469 166.098 260.809C164.139 244.148 166.098 241.208 166.098 241.208L163.649 235.818L183.728 223.568L196.461 222.098Z" fill="#2F2E41"/>
<path d="M211.642 303.44L201.358 312.751C201.358 312.751 192.543 308.83 187.156 310.3C181.769 311.77 172.464 312.751 172.464 312.751L173.933 321.081L186.428 318.774L176.382 332.841C176.382 332.841 176.382 354.892 182.748 354.892C189.115 354.892 187.156 341.661 187.156 341.661L206.745 326.471C206.745 326.471 216.539 322.551 217.518 322.551C218.498 322.551 211.642 303.44 211.642 303.44Z" fill="#2F2E41"/>
<path d="M147.733 167.461C156.929 167.461 164.384 160.002 164.384 150.8C164.384 141.599 156.929 134.14 147.733 134.14C138.538 134.14 131.083 141.599 131.083 150.8C131.083 160.002 138.538 167.461 147.733 167.461Z" fill="#A0616A"/>
<path d="M131.328 163.786C131.328 163.786 139.163 161.826 141.612 163.786C144.061 165.746 144.55 170.156 147.978 170.646C151.406 171.136 154.345 171.136 154.834 171.626C155.324 172.116 166.588 185.837 166.588 185.837C166.588 185.837 173.444 189.757 174.913 195.147C176.382 200.537 191.074 218.668 193.033 220.628C194.991 222.588 180.3 232.388 175.403 235.818C170.505 239.248 156.304 240.718 151.896 232.878C147.489 225.038 123.492 174.076 131.328 163.786Z" fill="#AFBFFA"/>
<path d="M149.937 195.637L153.855 218.178C153.855 218.178 195.481 213.767 198.419 222.098C201.358 230.428 202.337 232.878 202.337 232.878L194.012 235.818L190.094 228.468C188.901 228.045 187.634 227.87 186.371 227.955C185.108 228.039 183.875 228.38 182.748 228.958C178.831 230.918 144.55 235.818 142.102 229.448C139.653 223.078 132.797 199.557 132.797 199.557L143.081 191.227L149.937 195.637Z" fill="#A0616A"/>
<path d="M140.579 165.847C140.579 165.847 152.386 190.737 151.406 197.597C150.427 204.457 146.999 199.557 146.999 199.557C146.999 199.557 142.591 192.697 140.633 196.617C138.674 200.537 136.225 205.927 134.266 205.437C132.307 204.947 121.533 168.686 127.41 165.256C133.287 161.826 140.579 165.847 140.579 165.847Z" fill="#AFBFFA"/>
<path d="M115.821 134.552C127.965 134.552 137.809 124.702 137.809 112.551C137.809 100.4 127.965 90.55 115.821 90.55C103.678 90.55 93.834 100.4 93.834 112.551C93.834 124.702 103.678 134.552 115.821 134.552Z" fill="#2F2E41"/>
<path d="M96.8561 130.769C99.7019 132.827 102.999 134.173 106.471 134.695C109.944 135.217 113.491 134.899 116.815 133.768C120.14 132.637 123.145 130.725 125.58 128.194C128.015 125.662 129.808 122.584 130.811 119.217C130.431 122.234 129.431 125.141 127.873 127.752C126.314 130.363 124.232 132.623 121.756 134.388C119.281 136.153 116.467 137.386 113.492 138.008C110.517 138.63 107.445 138.629 104.47 138.003C101.495 137.377 98.6828 136.141 96.2097 134.373C93.7366 132.605 91.6567 130.343 90.1015 127.729C88.5462 125.116 87.5492 122.209 87.1736 119.191C86.7979 116.173 87.0517 113.109 87.9189 110.194C87.4264 114.111 87.9963 118.087 89.5687 121.708C91.1412 125.328 93.6583 128.457 96.8561 130.769V130.769Z" fill="#2F2E41"/>
<path d="M133.778 161.319C142.683 161.319 149.902 154.096 149.902 145.185C149.902 136.275 142.683 129.051 133.778 129.051C124.873 129.051 117.654 136.275 117.654 145.185C117.654 154.096 124.873 161.319 133.778 161.319Z" fill="#2F2E41"/>
<path d="M147.337 150.319C155.23 150.319 161.629 145.312 161.629 139.135C161.629 132.959 155.23 127.951 147.337 127.951C139.444 127.951 133.045 132.959 133.045 139.135C133.045 145.312 139.444 150.319 147.337 150.319Z" fill="#2F2E41"/>
<path d="M147.978 158.151C149.736 158.151 151.161 155.628 151.161 152.515C151.161 149.403 149.736 146.88 147.978 146.88C146.22 146.88 144.795 149.403 144.795 152.515C144.795 155.628 146.22 158.151 147.978 158.151Z" fill="#A0616A"/>
<path d="M191.673 235.604C191.673 235.604 200.343 230.627 201.952 231.875C203.561 233.123 204.277 237.028 204.277 237.028L194.257 240.963L191.318 235.573L191.673 235.604Z" fill="#2F2E41"/>
<path d="M150.36 405.436V345.565" stroke="#3F3D56" stroke-width="2" stroke-miterlimit="10"/>
<path d="M150.361 354.031C155.034 354.031 158.822 350.241 158.822 345.565C158.822 340.889 155.034 337.098 150.361 337.098C145.687 337.098 141.899 340.889 141.899 345.565C141.899 350.241 145.687 354.031 150.361 354.031Z" fill="#3F3D56"/>
<path d="M150.361 382.465C150.361 382.465 149.152 356.45 124.371 359.474Z" fill="#3F3D56"/>
<path d="M408.063 361.085V301.213" stroke="#3F3D56" stroke-width="2" stroke-miterlimit="10"/>
<path d="M408.063 309.68C412.736 309.68 416.525 305.889 416.525 301.213C416.525 296.537 412.736 292.746 408.063 292.746C403.39 292.746 399.602 296.537 399.602 301.213C399.602 305.889 403.39 309.68 408.063 309.68Z" fill="#3F3D56"/>
<path d="M408.063 338.113C408.063 338.113 406.854 312.099 382.074 315.123Z" fill="#3F3D56"/>
<path d="M512.549 362.454V242.711" stroke="#3F3D56" stroke-width="2" stroke-miterlimit="10"/>
<path d="M512.549 251.177C517.223 251.177 521.011 247.387 521.011 242.711C521.011 238.035 517.223 234.244 512.549 234.244C507.876 234.244 504.088 238.035 504.088 242.711C504.088 247.387 507.876 251.177 512.549 251.177Z" fill="#3F3D56"/>
<path d="M512.549 277.192C512.549 277.192 513.758 251.177 538.538 254.201Z" fill="#3F3D56"/>
<path d="M512.549 360.126C512.549 360.126 507.11 312.258 538.538 309.839" stroke="#3F3D56" stroke-width="2" stroke-miterlimit="10"/>
<path d="M538.538 318.306C543.212 318.306 547 314.515 547 309.839C547 305.163 543.212 301.373 538.538 301.373C533.865 301.373 530.077 305.163 530.077 309.839C530.077 314.515 533.865 318.306 538.538 318.306Z" fill="#3F3D56"/>
</g>
<defs>
<clipPath id="clip0">
<rect width="547" height="420" fill="white"/>
</clipPath>
</defs>
</svg>
